<svg width="18" height="18" viewBox="0 0 18 18" fill="none" xmlns="http://www.w3.org/2000/svg">
<path d="M10.8079 10.425L11.9746 8.40829C12.0496 8.28329 12.0163 8.12496 11.9079 8.03329L10.6746 7.06663C10.6996 6.88329 10.7163 6.69163 10.7163 6.49996C10.7163 6.30829 10.6996 6.11663 10.6746 5.92496L11.9079 4.95829C12.0163 4.86663 12.0496 4.70829 11.9746 4.58329L10.8079 2.56663C10.7329 2.44163 10.5829 2.39163 10.4496 2.44163L8.9996 3.02496C8.6996 2.79163 8.3746 2.59996 8.01626 2.44996L7.7996 0.908293C7.7746 0.774959 7.6496 0.666626 7.50793 0.666626H5.1746C5.03293 0.666626 4.90793 0.774959 4.88293 0.916626L4.66626 2.45829C4.31626 2.60829 3.98293 2.79996 3.68293 3.03329L2.23293 2.44996C2.0996 2.39996 1.9496 2.44996 1.8746 2.57496L0.707929 4.59163C0.632929 4.71663 0.666263 4.87496 0.774596 4.96663L2.00793 5.93329C1.98293 6.11663 1.96626 6.30829 1.96626 6.49996C1.96626 6.69163 1.98293 6.88329 2.00793 7.07496L0.774596 8.04163C0.666263 8.13329 0.632929 8.29163 0.707929 8.41663L1.8746 10.4333C1.9496 10.5583 2.0996 10.6083 2.23293 10.5583L3.68293 9.97496C3.98293 10.2083 4.30793 10.4 4.66626 10.55L4.88293 12.0916C4.90793 12.225 5.03293 12.3333 5.1746 12.3333H7.50793C7.6496 12.3333 7.7746 12.225 7.7996 12.0833L8.01626 10.5416C8.36626 10.3916 8.6996 10.2 8.9996 9.96663L10.4496 10.55C10.5829 10.6 10.7329 10.55 10.8079 10.425ZM6.34126 8.16663C5.4246 8.16663 4.6746 7.41663 4.6746 6.49996C4.6746 5.58329 5.4246 4.83329 6.34126 4.83329C7.25793 4.83329 8.00793 5.58329 8.00793 6.49996C8.00793 7.41663 7.25793 8.16663 6.34126 8.16663Z" fill="#3E1E5D"/>
<path d="M17.2661 14.5583L16.4661 13.9416C16.4827 13.8249 16.4994 13.6999 16.4994 13.5749C16.4994 13.4499 16.4911 13.3249 16.4661 13.2083L17.2577 12.5916C17.3244 12.5333 17.3494 12.4333 17.2994 12.3499L16.5494 11.0583C16.5077 10.9749 16.4077 10.9499 16.3161 10.9749L15.3911 11.3499C15.1994 11.1999 14.9911 11.0749 14.7577 10.9833L14.6161 9.99992C14.6077 9.89992 14.5244 9.83325 14.4411 9.83325H12.9494C12.8577 9.83325 12.7744 9.89992 12.7661 9.99158L12.6244 10.9749C12.3994 11.0749 12.1827 11.1916 11.9911 11.3416L11.0661 10.9666C10.9827 10.9333 10.8827 10.9666 10.8327 11.0499L10.0827 12.3416C10.0411 12.4249 10.0494 12.5249 10.1244 12.5833L10.9161 13.1999C10.8994 13.3166 10.8911 13.4416 10.8911 13.5666C10.8911 13.6916 10.8994 13.8166 10.9161 13.9333L10.1244 14.5499C10.0577 14.6083 10.0327 14.7083 10.0827 14.7916L10.8327 16.0833C10.8744 16.1666 10.9744 16.1916 11.0661 16.1666L11.9911 15.7916C12.1827 15.9416 12.3911 16.0666 12.6244 16.1583L12.7661 17.1416C12.7827 17.2333 12.8577 17.2999 12.9494 17.2999H14.4411C14.5327 17.2999 14.6161 17.2333 14.6244 17.1416L14.7661 16.1583C14.9911 16.0583 15.2077 15.9416 15.3911 15.7916L16.3244 16.1666C16.4077 16.1999 16.5077 16.1666 16.5577 16.0833L17.3077 14.7916C17.3577 14.7166 17.3327 14.6166 17.2661 14.5583ZM13.6911 14.6916C13.0744 14.6916 12.5661 14.1916 12.5661 13.5666C12.5661 12.9416 13.0661 12.4416 13.6911 12.4416C14.3161 12.4416 14.8161 12.9416 14.8161 13.5666C14.8161 14.1916 14.3077 14.6916 13.6911 14.6916Z" fill="#3E1E5D"/>
</svg>
