<svg width="20" height="10" viewBox="0 0 20 10" fill="none" xmlns="http://www.w3.org/2000/svg">
<path d="M19.1666 1.66667C19.1666 2.58333 18.4166 3.33333 17.5 3.33333C17.35 3.33333 17.2083 3.31667 17.075 3.275L14.1083 6.23333C14.15 6.36667 14.1666 6.51667 14.1666 6.66667C14.1666 7.58333 13.4166 8.33333 12.5 8.33333C11.5833 8.33333 10.8333 7.58333 10.8333 6.66667C10.8333 6.51667 10.85 6.36667 10.8916 6.23333L8.76665 4.10833C8.63331 4.15 8.48331 4.16667 8.33331 4.16667C8.18331 4.16667 8.03331 4.15 7.89998 4.10833L4.10831 7.90833C4.14998 8.04167 4.16665 8.18333 4.16665 8.33333C4.16665 9.25 3.41665 10 2.49998 10C1.58331 10 0.833313 9.25 0.833313 8.33333C0.833313 7.41667 1.58331 6.66667 2.49998 6.66667C2.64998 6.66667 2.79165 6.68333 2.92498 6.725L6.72498 2.93333C6.68331 2.8 6.66665 2.65 6.66665 2.5C6.66665 1.58333 7.41665 0.833333 8.33331 0.833333C9.24998 0.833333 9.99998 1.58333 9.99998 2.5C9.99998 2.65 9.98331 2.8 9.94165 2.93333L12.0666 5.05833C12.2 5.01667 12.35 5 12.5 5C12.65 5 12.8 5.01667 12.9333 5.05833L15.8916 2.09167C15.85 1.95833 15.8333 1.81667 15.8333 1.66667C15.8333 0.75 16.5833 0 17.5 0C18.4166 0 19.1666 0.75 19.1666 1.66667Z" fill="#3E1E5D"/>
</svg>
