<svg width="18" height="14" viewBox="0 0 18 14" fill="none" xmlns="http://www.w3.org/2000/svg">
<path d="M14 10.3333H12.3334V9.5H5.66669V10.3333H4.00002V9.5H0.666687V13.6667H17.3334V9.5H14V10.3333Z" fill="#3E1E5D"/>
<path d="M15.6667 3.66671H13.1667V2.00004C13.1667 1.08337 12.4167 0.333374 11.5 0.333374H6.50002C5.58335 0.333374 4.83335 1.08337 4.83335 2.00004V3.66671H2.33335C1.41669 3.66671 0.666687 4.41671 0.666687 5.33337V8.66671H4.00002V7.00004H5.66669V8.66671H12.3334V7.00004H14V8.66671H17.3334V5.33337C17.3334 4.41671 16.5834 3.66671 15.6667 3.66671ZM11.5 3.66671H6.50002V2.00004H11.5V3.66671Z" fill="#3E1E5D"/>
</svg>
